<svg width="400" height="400" viewBox="0 0 400 400" fill="none" xmlns="http://www.w3.org/2000/svg">
<mask id="mask0" mask-type="alpha" maskUnits="userSpaceOnUse" x="0" y="100" width="400" height="300">
<path d="M0 100.651H399.866V399.941H0V100.651Z" fill="white"/>
</mask>
<g mask="url(#mask0)">
<path fill-rule="evenodd" clip-rule="evenodd" d="M396.564 150.697C398.679 146.153 399.866 141.075 399.866 135.714C399.866 116.35 384.433 100.651 365.396 100.651C353.402 100.651 342.842 106.886 336.667 116.342L336.646 116.329C336.646 116.329 336.604 116.413 336.531 116.556C335.331 118.421 334.303 120.41 333.467 122.499C330.979 127.255 327.372 133.989 323.922 139.866C316.561 152.401 309.459 162.63 309.459 162.63C309.459 162.63 300.805 174.931 291.888 184.243C281.577 195.006 270.799 202.989 270.799 202.989C270.799 202.989 260.207 210.136 251.527 213.327C240.349 217.435 230.444 217.823 230.444 217.823C230.444 217.823 219.287 217.778 210.967 215.499C199.144 212.258 188.902 206.439 188.902 206.439C188.902 206.439 179.012 200.474 170.089 192.116C158.919 181.653 148.209 168.321 148.209 168.321C148.209 168.321 143.332 161.583 137.061 154.985C131.044 148.653 123.622 142.449 123.622 142.449C123.622 142.449 114.613 135.309 102.705 128.958C92.258 123.386 77.7034 118.328 77.7034 118.328C77.7034 118.328 66.2077 115.289 54.5034 113.955C40.9923 112.414 28.0299 112.72 28.0299 112.72L28.029 112.816C12.5478 112.824 0 125.593 0 141.343C0 157.099 12.5565 169.87 28.0444 169.87C28.9478 169.87 29.8396 169.823 30.7208 169.737C34.8126 169.616 42.57 169.436 49.6328 169.542C59.6522 169.692 68.2222 170.438 68.2222 170.438C68.2222 170.438 79.0956 171.591 87.685 173.215C96.3082 174.844 102.647 176.946 102.647 176.946C102.647 176.946 113.423 181.057 119.815 185.187C134.744 194.83 140.697 201.329 146.011 216.955C149.432 227.015 149.105 235.84 149.105 235.84C149.105 235.84 149.093 248.53 147.101 258.149C143.9 273.622 138.12 288.914 138.12 288.914C138.12 288.914 131.133 306.782 128.159 320.961C124.958 336.224 125.756 347.878 125.756 347.878C125.756 347.878 126.656 358.302 128.539 367.348C129.928 374.017 132.5 381.066 133.43 383.511C136.796 393.12 145.814 400 156.416 400C169.892 400 180.816 388.887 180.816 375.18C180.816 372.748 180.466 370.399 179.824 368.177L179.867 368.162C179.867 368.162 177.328 360.929 175.116 352.381C172.807 343.459 171.099 334.247 171.099 334.247C171.099 334.247 168.338 317.967 168.972 304.74C169.61 291.406 173.643 281.123 173.643 281.123C173.643 281.123 177.281 271.005 184.727 263.245C190.895 256.816 200.094 252.491 200.094 252.491C200.094 252.491 208.822 248.437 218.572 247.288C225.385 246.485 239.82 246.758 254.47 245.956C268.664 245.178 283.021 243.356 293.35 240.8C311.706 236.257 328.23 227.737 328.23 227.737C328.23 227.737 339.783 221.449 349.306 213.778C360.225 204.981 369.305 194.646 369.305 194.646C369.305 194.646 378.122 183.227 384.524 172.906C390.997 162.469 395.58 152.811 396.423 151.003C396.465 150.915 396.504 150.825 396.546 150.738C396.557 150.712 396.564 150.697 396.564 150.697Z" fill="#007AFF"/>
</g>
<path fill-rule="evenodd" clip-rule="evenodd" d="M221.294 298.894C203.717 298.894 189.467 313.388 189.467 331.269C189.467 349.148 203.717 363.643 221.294 363.643C238.871 363.643 253.121 349.148 253.121 331.269C253.121 313.388 238.871 298.894 221.294 298.894ZM56.3813 190.768C36.4857 190.768 20.3552 207.175 20.3552 227.414C20.3552 247.652 36.4857 264.058 56.3813 264.058C76.2779 264.058 92.4074 247.652 92.4074 227.414C92.4074 207.175 76.2779 190.768 56.3813 190.768ZM258.154 67.9463C233.281 67.9463 213.117 88.4573 213.117 113.759C213.117 139.061 233.281 159.572 258.154 159.572C283.03 159.572 303.194 139.061 303.194 113.759C303.194 88.4573 283.03 67.9463 258.154 67.9463Z" fill="#007AFF"/>
<path fill-rule="evenodd" clip-rule="evenodd" d="M141.058 221.657C141.058 221.657 138.817 231.075 133.709 239.938C128.772 248.502 120.965 256.522 120.965 256.522C120.965 256.522 113.18 263.861 103.052 269.584C91.1599 276.304 76.64 281.569 76.64 281.569C76.64 281.569 57.8816 287.378 45.0671 293.574C31.8681 299.956 24.3096 307.028 24.3096 307.028L24.3454 307.205C18.2314 313.022 14.4043 321.297 14.4043 330.487C14.4043 348.092 28.4362 362.365 45.7444 362.365C46.0942 362.365 46.44 362.35 46.7869 362.338C47.9009 362.378 49.069 362.387 50.2951 362.347C59.7782 362.035 72.9347 358.454 88.1309 348.067C97.1386 341.91 103.264 334.491 103.264 334.491C103.264 334.491 112.285 323.734 119.25 312.869C125.194 303.595 129.243 293.964 129.243 293.964C129.243 293.964 134.083 283.847 137.736 272.744C140.185 265.297 141.939 255.365 141.939 255.365C141.939 255.365 143.387 243.737 143.137 234.14C142.96 227.398 141.058 221.657 141.058 221.657ZM196.778 187.857C191.293 177.77 188.351 164.823 188.351 164.823C188.351 164.823 185.947 153.979 185.705 140.796C185.487 129.01 187.431 114.728 187.431 114.728C187.431 114.728 190.32 99.0172 192.588 85.2226C194.193 75.4614 195.409 66.1936 195.409 66.1936C195.409 66.1936 196.407 56.0855 196.433 48.1848C196.445 44.5209 196.27 41.2786 196.069 38.7912C195.388 17.5047 178.221 0.458008 157.128 0.458008C143.897 0.458008 132.213 7.17054 125.169 17.4241L125.022 17.3897C125.022 17.3897 119.185 26.7499 116.57 35.6403C113.009 47.7465 112.372 60.3912 112.372 60.3912C112.372 60.3912 112.871 77.5106 115.86 91.4103C119.125 106.592 124.905 118.665 124.905 118.665C124.905 118.665 134.671 138.708 145.986 155.051C156.184 169.782 168.048 181.182 168.048 181.182C168.048 181.182 178.469 191.597 189.404 198.482C200.584 205.52 212.285 208.831 212.285 208.831C212.285 208.831 203.188 199.642 196.778 187.857ZM336.133 316.346C336.109 314.583 335.82 309.833 333.636 303.826C331.9 299.046 326.738 291.23 326.738 291.23C326.738 291.23 322.386 284.996 315.423 279.089C308.685 273.373 299.329 267.981 299.329 267.981C299.329 267.981 288.633 262.216 276.934 258.749C264.291 255.001 250.57 253.53 250.57 253.53C250.57 253.53 234.342 251.836 221.358 253.633C208.034 255.477 197.947 260.814 197.947 260.814C197.947 260.814 209.809 262.147 219.503 265.552C228.541 268.728 235.454 273.993 235.454 273.993C235.454 273.993 242.215 278.869 247.526 284.704C254.883 292.786 261.466 302.573 261.466 302.573C261.466 302.573 266.993 310.918 271.758 317.763C274.882 322.252 277.957 326.266 277.957 326.266C277.957 326.266 285.396 335.759 293.113 341.302C297.794 344.664 303.156 345.598 304.76 345.81C306.225 346.062 307.729 346.2 309.265 346.2C324.165 346.2 336.243 333.914 336.243 318.758C336.243 317.945 336.201 317.142 336.133 316.346Z" fill="#007AFF"/>
</svg>
