<svg width="32" height="32" viewBox="0 0 32 32" fill="none" xmlns="http://www.w3.org/2000/svg">
<mask id="mask0" mask-type="alpha" maskUnits="userSpaceOnUse" x="0" y="8" width="32" height="24">
<path d="M0 8.05212H31.9893V31.9953H0V8.05212Z" fill="white"/>
</mask>
<g mask="url(#mask0)">
<path fill-rule="evenodd" clip-rule="evenodd" d="M31.7251 12.0557C31.8943 11.6923 31.9893 11.286 31.9893 10.8571C31.9893 9.30799 30.7546 8.05212 29.2317 8.05212C28.2722 8.05212 27.4273 8.55092 26.9333 9.30736L26.9317 9.30634C26.9317 9.30634 26.9283 9.31302 26.9225 9.3245C26.8265 9.47373 26.7443 9.63278 26.6773 9.79994C26.4783 10.1804 26.1898 10.7191 25.9137 11.1893C25.3249 12.1921 24.7567 13.0104 24.7567 13.0104C24.7567 13.0104 24.0644 13.9945 23.351 14.7394C22.5261 15.6005 21.6639 16.2392 21.6639 16.2392C21.6639 16.2392 20.8165 16.8109 20.1221 17.0661C19.2279 17.3948 18.4356 17.4258 18.4356 17.4258C18.4356 17.4258 17.543 17.4222 16.8774 17.2399C15.9315 16.9807 15.1122 16.5151 15.1122 16.5151C15.1122 16.5151 14.3209 16.038 13.6071 15.3693C12.7135 14.5322 11.8567 13.4657 11.8567 13.4657C11.8567 13.4657 11.4666 12.9267 10.9649 12.3988C10.4836 11.8923 9.88978 11.3959 9.88978 11.3959C9.88978 11.3959 9.16901 10.8247 8.21642 10.3167C7.38064 9.87086 6.21627 9.46626 6.21627 9.46626C6.21627 9.46626 5.29662 9.22315 4.36027 9.11638C3.27938 8.9931 2.2424 9.01763 2.2424 9.01763L2.24232 9.02533C1.00383 9.02596 0 10.0474 0 11.3075C0 12.5679 1.00452 13.5896 2.24356 13.5896C2.31583 13.5896 2.38717 13.5858 2.45766 13.579C2.785 13.5693 3.4056 13.5549 3.97063 13.5634C4.77217 13.5754 5.45778 13.6351 5.45778 13.6351C5.45778 13.6351 6.32765 13.7273 7.0148 13.8572C7.70466 13.9875 8.21179 14.1557 8.21179 14.1557C8.21179 14.1557 9.07386 14.4846 9.58524 14.815C10.7795 15.5864 11.2557 16.1063 11.6809 17.3564C11.9546 18.1612 11.9284 18.8672 11.9284 18.8672C11.9284 18.8672 11.9274 19.8824 11.7681 20.6519C11.512 21.8898 11.0496 23.1131 11.0496 23.1131C11.0496 23.1131 10.4907 24.5426 10.2528 25.6769C9.99668 26.8979 10.0604 27.8302 10.0604 27.8302C10.0604 27.8302 10.1325 28.6641 10.2831 29.3879C10.3942 29.9214 10.6 30.4853 10.6744 30.6809C10.9437 31.4496 11.6652 32 12.5133 32C13.5913 32 14.4653 31.111 14.4653 30.0144C14.4653 29.8198 14.4373 29.6319 14.3859 29.4542L14.3893 29.453C14.3893 29.453 14.1863 28.8743 14.0093 28.1905C13.8245 27.4768 13.6879 26.7398 13.6879 26.7398C13.6879 26.7398 13.4671 25.4374 13.5178 24.3792C13.5688 23.3125 13.8914 22.4899 13.8914 22.4899C13.8914 22.4899 14.1825 21.6804 14.7781 21.0596C15.2716 20.5453 16.0075 20.1993 16.0075 20.1993C16.0075 20.1993 16.7058 19.875 17.4858 19.7831C18.0308 19.7188 19.1856 19.7406 20.3576 19.6765C21.4931 19.6143 22.6417 19.4685 23.468 19.264C24.9365 18.9006 26.2584 18.219 26.2584 18.219C26.2584 18.219 27.1826 17.716 27.9445 17.1022C28.818 16.3985 29.5444 15.5717 29.5444 15.5717C29.5444 15.5717 30.2497 14.6582 30.7619 13.8325C31.2798 12.9975 31.6464 12.2249 31.7139 12.0803C31.7172 12.0732 31.7203 12.066 31.7237 12.059C31.7246 12.057 31.7251 12.0557 31.7251 12.0557Z" fill="#000"/>
</g>
<path fill-rule="evenodd" clip-rule="evenodd" d="M17.7036 23.9115C16.2974 23.9115 15.1574 25.071 15.1574 26.5015C15.1574 27.9318 16.2974 29.0914 17.7036 29.0914C19.1097 29.0914 20.2497 27.9318 20.2497 26.5015C20.2497 25.071 19.1097 23.9115 17.7036 23.9115ZM4.51054 15.2614C2.91889 15.2614 1.62845 16.5739 1.62845 18.1931C1.62845 19.8122 2.91889 21.1246 4.51054 21.1246C6.10227 21.1246 7.39262 19.8122 7.39262 18.1931C7.39262 16.5739 6.10227 15.2614 4.51054 15.2614ZM20.6524 5.43567C18.6625 5.43567 17.0494 7.07655 17.0494 9.10065C17.0494 11.1248 18.6625 12.7657 20.6524 12.7657C22.6424 12.7657 24.2555 11.1248 24.2555 9.10065C24.2555 7.07655 22.6424 5.43567 20.6524 5.43567Z" fill="#000"/>
<path fill-rule="evenodd" clip-rule="evenodd" d="M11.2846 17.7325C11.2846 17.7325 11.1053 18.486 10.6967 19.195C10.3018 19.8802 9.67715 20.5217 9.67715 20.5217C9.67715 20.5217 9.05439 21.1089 8.24411 21.5667C7.29276 22.1043 6.13118 22.5255 6.13118 22.5255C6.13118 22.5255 4.6305 22.9902 3.60534 23.4859C2.54942 23.9964 1.94474 24.5622 1.94474 24.5622L1.9476 24.5764C1.45848 25.0418 1.15232 25.7038 1.15232 26.4389C1.15232 27.8474 2.27487 28.9892 3.65953 28.9892C3.68751 28.9892 3.71518 28.988 3.74293 28.987C3.83205 28.9903 3.9255 28.991 4.02358 28.9877C4.78223 28.9628 5.83475 28.6763 7.05044 27.8453C7.77106 27.3527 8.26111 26.7593 8.26111 26.7593C8.26111 26.7593 8.98281 25.8987 9.53995 25.0295C10.0155 24.2876 10.3394 23.5171 10.3394 23.5171C10.3394 23.5171 10.7266 22.7077 11.0188 21.8195C11.2148 21.2238 11.3551 20.4292 11.3551 20.4292C11.3551 20.4292 11.4709 19.4989 11.4509 18.7311C11.4368 18.1918 11.2846 17.7325 11.2846 17.7325ZM15.7422 15.0285C15.3034 14.2216 15.0681 13.1858 15.0681 13.1858C15.0681 13.1858 14.8758 12.3183 14.8564 11.2637C14.839 10.3208 14.9945 9.17824 14.9945 9.17824C14.9945 9.17824 15.2256 7.92136 15.407 6.81779C15.5354 6.0369 15.6327 5.29547 15.6327 5.29547C15.6327 5.29547 15.7126 4.48682 15.7146 3.85476C15.7156 3.56165 15.7016 3.30227 15.6855 3.10327C15.631 1.40036 14.2576 0.0366211 12.5702 0.0366211C11.5117 0.0366211 10.577 0.573623 10.0135 1.39391L10.0017 1.39116C10.0017 1.39116 9.53477 2.13997 9.32554 2.85121C9.04071 3.8197 8.98977 4.83127 8.98977 4.83127C8.98977 4.83127 9.02965 6.20083 9.2688 7.31281C9.52998 8.52731 9.99236 9.49321 9.99236 9.49321C9.99236 9.49321 10.7737 11.0966 11.6789 12.404C12.4947 13.5825 13.4438 14.4946 13.4438 14.4946C13.4438 14.4946 14.2775 15.3277 15.1523 15.8785C16.0467 16.4416 16.9828 16.7065 16.9828 16.7065C16.9828 16.7065 16.255 15.9714 15.7422 15.0285ZM26.8906 25.3077C26.8887 25.1666 26.8656 24.7866 26.6909 24.3061C26.552 23.9236 26.139 23.2984 26.139 23.2984C26.139 23.2984 25.7909 22.7996 25.2338 22.3271C24.6948 21.8698 23.9463 21.4385 23.9463 21.4385C23.9463 21.4385 23.0906 20.9773 22.1547 20.6999C21.1433 20.4 20.0456 20.2824 20.0456 20.2824C20.0456 20.2824 18.7474 20.1469 17.7086 20.2907C16.6427 20.4382 15.8358 20.8651 15.8358 20.8651C15.8358 20.8651 16.7847 20.9718 17.5602 21.2441C18.2832 21.4982 18.8363 21.9194 18.8363 21.9194C18.8363 21.9194 19.3772 22.3095 19.8021 22.7763C20.3906 23.4229 20.9173 24.2058 20.9173 24.2058C20.9173 24.2058 21.3594 24.8734 21.7406 25.421C21.9905 25.7801 22.2365 26.1013 22.2365 26.1013C22.2365 26.1013 22.8316 26.8607 23.449 27.3042C23.8235 27.5731 24.2525 27.6478 24.3808 27.6648C24.4979 27.6849 24.6183 27.6959 24.7412 27.6959C25.9331 27.6959 26.8994 26.7131 26.8994 25.5006C26.8994 25.4356 26.8961 25.3713 26.8906 25.3077Z" fill="#000"/>
</svg>
